<?xml version="1.0" encoding="utf-8"?>
<!-- Generator: Adobe Illustrator 25.4.1, SVG Export Plug-In . SVG Version: 6.00 Build 0)  -->
<svg version="1.1" id="Layer_1" xmlns="http://www.w3.org/2000/svg" xmlns:xlink="http://www.w3.org/1999/xlink" x="0px" y="0px"
	 viewBox="0 0 1172 373" style="enable-background:new 0 0 1172 373;" xml:space="preserve">
<style type="text/css">
	.st0{fill:#30333D;}
	.st1{fill:#17B978;}
	.st2{fill:#118252;}
	.st3{fill:#FFFFFF;}
	.st4{font-family:'Montserrat-MediumItalic';}
	.st5{font-size:156.5298px;}
	.st6{font-family:'Montserrat-ExtraBoldItalic';}
</style>
<g>
	<path class="st0" d="M344.9,197.2h726.2v152.1H216.4c36.1-13.5,60.3-32.4,74.2-45c11.6-10.6,26.1-24,37.8-46.6
		C341,233.5,344.1,210.9,344.9,197.2z"/>
	<polygon class="st1" points="1034.5,9.7 1018.4,94.1 1150.1,94.1 1163,9.7 	"/>
	<polygon class="st0" points="1015.1,111 969.5,349.3 1073.6,349.3 1110,111 	"/>
	<polygon class="st1" points="971.9,183.7 177.8,183.7 177.8,17.3 1002.2,17.3 	"/>
	<path class="st2" d="M339.3,24.4L339.3,24.4H184.9v152.2H966l14.2-78.3h-567C372.4,98.3,339.3,65.2,339.3,24.4z"/>
	
		<ellipse transform="matrix(0.7071 -0.7071 0.7071 0.7071 -72.7814 177.4345)" class="st1" cx="177.8" cy="176.6" rx="159.3" ry="159.3"/>
	<path class="st2" d="M177.8,328.7c-83.9,0-152.2-68.3-152.2-152.2c0-83.9,68.3-152.2,152.2-152.2c83.9,0,152.2,68.3,152.2,152.2
		C330,260.5,261.7,328.7,177.8,328.7z"/>
	<text transform="matrix(1 0 0 1 337.082 326.6133)" class="st3 st4 st5">PORTAL</text>
	<g>
		<g>
			<g>
				<path class="st3" d="M196.8,137.3c-0.4,0.4-0.7,2.4-0.9,3.7c-0.1,0.7-0.6,1.2-1.3,1.2c-3.5,0.3-13.7,1.3-14.3,0.7
					c-0.6-0.6-4.6-4-5.8-5c-0.2-0.2-0.4-0.4-0.5-0.7l-4.2-8.7c-0.4-0.9-1.5-1.4-2.4-1l-34.5,12c-0.5,0.2-0.9,0.5-1.1,1
					c-1.8,3.8-9.9,20.7-10.6,21c-0.7,0.4,1.4,22.4,1.8,26.5c0,0.4,0.2,0.8,0.5,1.1l17.3,18.9c0.5,0.6,1.4,0.8,2.2,0.5l27.7-10.3
					c1-0.4,2.1,0.1,2.5,1.1l0.6,1.5c0.2,0.6,0.7,1,1.3,1.2c2.3,0.7,8.4,2.7,8.7,3.3c0.3,0.7,1.8,9.5,2.2,11.8c0.1,0.4,0.2,0.7,0.5,1
					c2.5,2.8,16.7,18.8,16.1,20c-0.7,1.3-2.5,8.5-1.6,9.7c0.9,1.2,6.1,9.9,7.3,11.7c0.9,1.3,4.8,5.1,6.7,7c0.7,0.6,1.6,0.7,2.4,0.3
					l13.4-8.2c0.2-0.1,0.3-0.2,0.5-0.4c2.3-2.7,22.8-27.4,22.2-28.6c-0.6-1.3-5.1-11.4-6.1-12.6c-0.9-1.2,6.6-23.9,6.6-25.3
					c0-1.1,13.5-20.9,17.2-26.2c0.5-0.8,0.4-1.8-0.2-2.5l-2.4-2.6c-0.8-0.8-2.1-0.9-2.9-0.1l-7.4,7.4c-0.5,0.5-1.1,0.7-1.7,0.6
					l-11.9-2c-0.5-0.1-0.9-0.3-1.2-0.7c-2.6-3.1-15.4-18-15.7-18.7c-0.2-0.4-2.5-3.3-4.9-6.1l0,0l0.3-0.1l-5.7-5.8
					c-0.2,0.1-0.3,0.3-0.5,0.3C212.7,135.5,197.3,136.8,196.8,137.3z"/>
			</g>
			<g>
				<path class="st3" d="M294,120.6C269.9,70.4,217.4,43,164.9,48.2l2.1,3.7c3.5-0.3,7-0.6,10.5-0.6c4.6,0,9.1,0.3,13.6,0.8
					c0,0.2,0,0.3,0.1,0.5l4.2,11.1c0.3,0.7,0.1,1.6-0.5,2.1l-0.9,0.8l-5.4,5.6c-0.5,0.6-1.4,0.8-2.1,0.5l-6.5-2.3
					c-0.2,0-0.3-0.1-0.5-0.1l-8.7-0.9c-0.1,0-0.2,0-0.3,0l-5.1,0.2c-0.4,0-0.7,0.1-1,0.3l-9.1,6c-0.7,0.4-1,1.3-0.8,2.1l0.6,2.8
					c0.1,0.4,0.3,0.8,0.6,1.1l9.5,8.4c0.8,0.7,0.9,1.9,0.3,2.7l-4.6,6c-0.3,0.4-0.7,0.6-1.2,0.7l-1.9,0.4c-0.9,0.2-1.8-0.3-2.2-1.1
					l-3.3-7.3c0-0.1-0.1-0.1-0.1-0.2l-1.7-2.9c-0.6-1.1-2.1-1.4-3.1-0.5l-4.9,4.5c-0.2,0.1-0.3,0.3-0.4,0.5c-0.6,1-2.2,4.3-1.5,5.8
					c0.6,1.3,2.7,3.6,3.7,4.8c0.4,0.5,0.6,1.2,0.5,1.8c-0.2,0.9,0.2,1.7,0.9,2.2l5.5,3.2c1.2,0.7,1.3,2.3,0.3,3.2l-2.4,2.1
					c-0.2,0.2-0.5,0.4-0.8,0.4l-7.8,2.1c-0.8,0.2-1.4,0.9-1.5,1.7c-0.3,2.8-1,9.2-0.3,9.6c0.7,0.5,2.1-0.8,2.7-1.5
					c0.2-0.2,0.5-0.4,0.9-0.4l9.9-1.1c0.5-0.1,1-0.3,1.4-0.8l6.2-8.2c0.2-0.2,0.4-0.4,0.6-0.6l5.8-3.2c0.6-0.3,1.3-0.3,1.9,0l11.6,6
					c0.4,0.2,0.8,0.6,0.9,1l1.2,2.9c0.6,1.6,2.9,1.7,3.7,0.1l0.6-1.2c0.4-0.8,0.2-1.7-0.5-2.3l-6.5-6.1c-1.5-1.4-0.1-4,1.9-3.4
					l2.9,0.9c0.4,0.1,0.8,0.4,1.1,0.8l5.1,7.2c0,0.1,0.1,0.1,0.1,0.2l1.7,1.9c0.7,0.8,2.1,0.5,2.4-0.5c0.4-1.3,2.3-1.3,2.7,0
					c0.8,2.5,1.6,5.3,1.7,5.8c0.1,0.7,4.8,0.2,6.1,0c0.2-0.1,0.4-0.1,0.6-0.2l4.5-2c0.2-0.1,0.3-0.2,0.5-0.3l2.3-2
					c0.8-0.7,2.1-0.6,2.8,0.2l4.3,4.9c0.5,0.6,0.6,1.5,0.3,2.2l-1.7,3.2c-0.2,0.4-0.7,0.5-1.1,0.7l5.7,5.8l1.8-0.9
					c0.8-0.4,1.7-0.2,2.3,0.4l19.1,20.1c0.5,0.5,1.1,0.7,1.8,0.6l6.5-1.2c0.5-0.1,0.9-0.3,1.2-0.7c1.7-2,7.6-8.9,8.1-9.1
					c0.5-0.3,4.3-13,4.3-13l1.4-5.3c0.2-0.9,1.1-1.5,2-1.5l10,0.4c0.7,0,1.4,0.5,1.7,1.1l8,16.6c0.1,0.1,0.1,0.2,0.2,0.4
					c0.2,0.2,0.6,0.8,1.1,1.4c1.3,1.6,3.9,0.4,3.5-1.6l-4.4-22.8c0-0.2,0-0.4,0-0.6l0,0c28,61.7,1.6,134.9-59.8,164.4
					c-8.5,4.1-17.3,7.1-26.2,9.2l2.1,3.4c8.7-2.1,17.4-5.1,25.8-9.1C297.8,262,324.9,184.7,294,120.6z"/>
			</g>
			<g>
				<path class="st3" d="M65.6,121c0-0.1,0.1-0.2,0.2-0.2c1.6-1.1,3.1-2,3.5-2.2c0.1,0,0.1-0.1,0.2-0.2l4.3-6.3
					c0.2-0.2,0.4-0.3,0.7-0.2l9,3.6c0.2,0.1,0.4,0.3,0.4,0.5c0.1,1.7,0.6,8.9,0.8,6.8c0.2-2.4,2.3-9,2.3-9s1.7-4.8,4.2-8.3
					c2.6-3.5,5.8-7.7,7.8-8.4c1.9-0.6,4-9.2,4.1-9.9c0,0,0-0.1,0-0.1l0.3-3c0-0.2,0.1-0.4,0.3-0.5c1.5-0.6,4.2-3.4,4.6-3.9
					c0,0,0.1-0.1,0.2-0.1l1.7-0.8c0.1,0,0.1-0.1,0.1-0.1c0.6-0.6,6-5.5,7.6-7.3c1.8-1.8,3.2-3.5,3.2-3.5l-6.7,15.4c0,0,0,0,0,0
					l-1.1,3.2c-0.2,0.5,0.4,1,0.9,0.7c2.9-1.9,9.7-6,17-7.9c8.4-2.1,11.9-3.3,12.6-3.5c0.1,0,0.2-0.1,0.3-0.2l2.8-3.7
					c0.1-0.1,0.1-0.2,0.1-0.3l0.8-8.1c0-0.1,0.1-0.3,0.2-0.3c0.6-0.6,3.3-3.4,3.7-5c0.2-0.7-0.6-1.7-1.6-2.8c-0.3-0.3-0.1-0.9,0.3-1
					c5.5-1.2,11.1-2,16.6-2.4l-2.1-3.7c-14.6,1.4-29.2,5.3-43.1,12C84,78.3,59.3,112.6,51.5,150.8l3.8,1
					C57.4,141.2,60.8,130.8,65.6,121z"/>
			</g>
			<g>
				<path class="st3" d="M205.8,298.5c-36.5,8.4-74.4-0.2-103.6-22.2c-0.1-0.1-0.2-0.2-0.2-0.4c-0.4-3.2-0.8-7.1-0.5-7.7
					c0.3-0.6,1.9-0.6,3-0.5c0.5,0,0.8-0.5,0.6-0.9c-1.5-2.5-5.5-9.4-11.3-20.6c-7.4-14.2-0.8-4.9-0.2-7.1c0.6-2.2,3.4-5.3,3.6-7
					c0.2-1.7-6-8.3-8.1-9.3c-2.1-1-13.9-11.1-15-12.6c-0.9-1.3-2.8-10.2-3.1-11.8c0-0.2-0.1-0.3-0.3-0.4l-9.6-6.2
					c-0.1-0.1-0.2-0.1-0.2-0.2l-5.5-11.3c0,0,0,0,0-0.1c-0.2-0.2-1.2-1.8-2.6-3.9c-0.1-0.1-0.1-0.2-0.1-0.3c0-8.2,1.1-16.3,2.7-24.2
					l-3.8-1c-5.5,26.7-2.7,55.2,10,81.6c22.2,46.1,68.4,73.1,116.5,73.1c10,0,20-1.3,30-3.6L205.8,298.5z"/>
			</g>
			<g>
				<path class="st3" d="M261.8,219.8c1.2,6-5.5,20.8-5.5,20.8s-4.1,15.5,1.5,9.2c5.5-6.3,5.4-7.9,5.4-7.9l2.4-2.5l2.2-6.3
					c0,0,1.3-9.5,1.8-13.4C269.6,219.6,260.5,213.8,261.8,219.8z"/>
			</g>
		</g>
	</g>
	<text transform="matrix(1 0 0 1 357.0039 156.9141)" class="st1 st6 st5">HABAR</text>
	<g>
		<text transform="matrix(1 0 0 1 349.8906 151.8164)" class="st3 st6 st5">HABAR</text>
	</g>
</g>
</svg>
