<?xml version="1.0" encoding="utf-8"?>
<!-- Generator: Adobe Illustrator 25.4.1, SVG Export Plug-In . SVG Version: 6.00 Build 0)  -->
<svg version="1.1" id="Layer_1" xmlns="http://www.w3.org/2000/svg" xmlns:xlink="http://www.w3.org/1999/xlink" x="0px" y="0px"
	 viewBox="0 0 119.9 122.9" style="enable-background:new 0 0 119.9 122.9;" xml:space="preserve">
<style type="text/css">
	.st0{fill:#17B978;}
</style>
<path class="st0" d="M108.7,122.9H11.2c-6.2,0-11.2-5-11.2-11.2V22.5c0-6.2,5-11.2,11.2-11.2h10.4v13.8c0,3.7,1.7,7.3,4.7,9.6
	c5.3,4.3,13,4.3,18.3,0c2.9-2.3,4.7-5.9,4.7-9.6V11.3h20.9v13.8c0,3.7,1.7,7.3,4.7,9.6c5.3,4.3,13,4.3,18.3,0
	c2.9-2.3,4.7-5.9,4.7-9.6V11.3h10.8c6.2,0,11.2,5,11.2,11.2v89.1C119.9,117.8,114.9,122.9,108.7,122.9z M83.6,56.8h16.1
	c1.1,0,2,0.9,2.1,2v13.4c0,1.1-0.9,2-2.1,2H83.6c-1.1,0-2-0.9-2-2V58.8C81.6,57.7,82.5,56.8,83.6,56.8L83.6,56.8z M52.1,56.8h16.1
	c1.1,0,2,0.9,2,2v13.4c0,1.1-0.9,2-2,2H52.1c-1.1,0-2-0.9-2-2V58.8C50.1,57.7,51,56.9,52.1,56.8L52.1,56.8z M20.2,56.8h16.1
	c1.1,0,2,0.9,2,2v13.4c0,1.1-0.9,2-2,2H20.2c-1.1,0-2-0.9-2-2V58.8C18.2,57.7,19.1,56.8,20.2,56.8L20.2,56.8z M83.6,85.3h16.1
	c1.1,0,2,0.9,2.1,2v13.4c0,1.1-0.9,2.1-2.1,2.1H83.6c-1.1,0-2-0.9-2-2.1V87.3C81.6,86.2,82.5,85.3,83.6,85.3L83.6,85.3z M52.1,85.3
	h16.1c1.1,0,2,0.9,2,2v13.4c0,1.1-0.9,2-2,2.1H52.1c-1.1,0-2-0.9-2-2.1V87.3C50.1,86.2,51,85.3,52.1,85.3L52.1,85.3z M20.2,85.3
	h16.1c1.1,0,2,0.9,2,2v13.4c0,1.1-0.9,2-2,2.1H20.2c-1.1,0-2-0.9-2-2.1V87.3C18.2,86.2,19.1,85.3,20.2,85.3L20.2,85.3z M78.6,4.4
	C78.6,2,81,0,84,0s5.4,2,5.4,4.4v20.7c0,2.5-2.4,4.5-5.4,4.5s-5.4-2-5.4-4.5V4.4L78.6,4.4z M30,4.4C30,2,32.4,0,35.4,0
	s5.4,2,5.4,4.4v20.7c0,2.5-2.4,4.5-5.4,4.5s-5.4-2-5.4-4.5C30,25.1,30,4.4,30,4.4z M3.6,43.9v66.6c0,4.9,4,8.8,8.8,8.8h95
	c4.9,0,8.8-4,8.8-8.8V43.9H3.6z"/>
<rect x="-428.8" y="-50.8" class="st0" width="87.5" height="87.5"/>
</svg>
