<?xml version="1.0" encoding="utf-8"?>
<!-- Generator: Adobe Illustrator 25.4.1, SVG Export Plug-In . SVG Version: 6.00 Build 0)  -->
<svg version="1.1" id="SvgjsSvg1011" xmlns:svgjs="http://svgjs.com/svgjs"
	 xmlns="http://www.w3.org/2000/svg" xmlns:xlink="http://www.w3.org/1999/xlink" x="0px" y="0px" viewBox="0 0 288 288"
	 style="enable-background:new 0 0 288 288;" xml:space="preserve">
<style type="text/css">
	.st0{fill-rule:evenodd;clip-rule:evenodd;fill:#17B978;}
	.st1{fill:#17B978;}
</style>
<g id="SvgjsG1013">
	<path class="st0" d="M270,180c0-7.2-2.8-14-7.9-19.1c-5.1-5.1-11.9-7.9-19.1-7.9h-63c-7.2,0-14,2.8-19.1,7.9
		c-5.1,5.1-7.9,11.9-7.9,19.1v63c0,7.2,2.8,14,7.9,19.1c5.1,5.1,11.9,7.9,19.1,7.9h63c7.2,0,14-2.8,19.1-7.9
		c5.1-5.1,7.9-11.9,7.9-19.1V180z M135,180c0-7.2-2.8-14-7.9-19.1c-5.1-5.1-11.9-7.9-19.1-7.9H45c-7.2,0-14,2.8-19.1,7.9
		C20.8,166,18,172.8,18,180v63c0,7.2,2.8,14,7.9,19.1C31,267.2,37.8,270,45,270h63c7.2,0,14-2.8,19.1-7.9c5.1-5.1,7.9-11.9,7.9-19.1
		V180z M252,180v63c0,5-4,9-8.9,9c0,0,0,0-0.1,0h-63c-5,0-9-4-9-8.9c0,0,0,0,0-0.1v-63c0-5,4-9,8.9-9c0,0,0,0,0.1,0h63
		C248,171,252,175,252,180C252,180,252,180,252,180z M117,180v63c0,5-4,9-8.9,9c0,0,0,0-0.1,0H45c-5,0-9-4-9-8.9c0,0,0,0,0-0.1v-63
		c0-5,4-9,8.9-9c0,0,0,0,0.1,0h63C113,171,117,175,117,180C117,180,117,180,117,180z M135,45c0-7.2-2.8-14-7.9-19.1
		C122,20.8,115.2,18,108,18H45c-7.2,0-14,2.8-19.1,7.9C20.8,31,18,37.8,18,45v63c0,7.2,2.8,14,7.9,19.1C31,132.2,37.8,135,45,135h63
		c7.2,0,14-2.8,19.1-7.9c5.1-5.1,7.9-11.9,7.9-19.1V45z M270,45c0-7.2-2.8-14-7.9-19.1C257,20.8,250.2,18,243,18h-63
		c-7.2,0-14,2.8-19.1,7.9C155.8,31,153,37.8,153,45v63c0,7.2,2.8,14,7.9,19.1c5.1,5.1,11.9,7.9,19.1,7.9h63c7.2,0,14-2.8,19.1-7.9
		c5.1-5.1,7.9-11.9,7.9-19.1V45z M117,45v63c0,5-4,9-8.9,9c0,0,0,0-0.1,0H45c-5,0-9-4-9-8.9c0,0,0,0,0-0.1V45c0-5,4-9,8.9-9
		c0,0,0,0,0.1,0h63C113,36,117,40,117,45C117,45,117,45,117,45z M252,45v63c0,5-4,9-8.9,9c0,0,0,0-0.1,0h-63c-5,0-9-4-9-8.9
		c0,0,0,0,0-0.1V45c0-5,4-9,8.9-9c0,0,0,0,0.1,0h63C248,36,252,40,252,45C252,45,252,45,252,45z"/>
</g>
<rect x="-486.8" y="0.2" class="st1" width="87.5" height="87.5"/>
</svg>
