<?xml version="1.0" encoding="utf-8"?>
<!-- Generator: Adobe Illustrator 25.4.1, SVG Export Plug-In . SVG Version: 6.00 Build 0)  -->
<svg version="1.1" id="Layer_1" xmlns="http://www.w3.org/2000/svg" xmlns:xlink="http://www.w3.org/1999/xlink" x="0px" y="0px"
	 viewBox="0 0 122.9 120" style="enable-background:new 0 0 122.9 120;" xml:space="preserve">
<style type="text/css">
	.st0{fill:#6D7280;}
</style>
<g>
	<path class="st0" d="M69.8,4.1C69.8,1.8,72,0,74.7,0s4.9,1.8,4.9,4.1v17.7c0,2.2-2.2,4.1-4.9,4.1s-4.9-1.8-4.9-4.1V4.1L69.8,4.1
		L69.8,4.1z M14.4,78.1h11.3c0.7,0,1.3,0.6,1.3,1.3v8.4c0,0.7-0.6,1.3-1.3,1.3H14.4c-0.7,0-1.3-0.6-1.3-1.3v-8.4
		C13.1,78.6,13.6,78.1,14.4,78.1L14.4,78.1z M57.8,54.2h11.3c0.3,0,0.7,0.1,0.9,0.4c-4.4,2.8-8.3,6.4-11.4,10.7h-0.9
		c-0.7,0-1.3-0.6-1.3-1.3v-8.4C56.5,54.8,57.1,54.2,57.8,54.2L57.8,54.2z M36.1,54.2h11.3c0.7,0,1.3,0.6,1.3,1.3v8.4
		c0,0.7-0.6,1.3-1.3,1.3H36.1c-0.7,0-1.3-0.6-1.3-1.3v-8.4C34.8,54.8,35.4,54.2,36.1,54.2L36.1,54.2z M14.4,54.2h11.3
		c0.7,0,1.3,0.6,1.3,1.3v8.4c0,0.7-0.6,1.3-1.3,1.3H14.4c-0.7,0-1.3-0.6-1.3-1.3v-8.4C13.1,54.8,13.6,54.2,14.4,54.2L14.4,54.2z
		 M36.1,78.1h11.3c0.7,0,1.3,0.6,1.3,1.3v8.4c0,0.7-0.6,1.3-1.3,1.3H36.1c-0.7,0-1.3-0.6-1.3-1.3v-8.4
		C34.8,78.6,35.4,78.1,36.1,78.1L36.1,78.1z M103.5,59.5c11.7,4.8,19.4,16.3,19.4,29c0,8.7-3.5,16.5-9.2,22.2s-13.5,9.2-22.2,9.2
		c-8.7,0-16.5-3.5-22.2-9.2c-5.7-5.7-9.2-13.5-9.2-22.2c0-12.6,7.9-24.4,19.5-29.2C86.9,56.4,96.3,56.5,103.5,59.5L103.5,59.5
		L103.5,59.5z M86.6,87.7c0.4-0.4,0.9-0.8,1.4-1.1V73c0-1.4,1.1-2.5,2.5-2.5s2.5,1.1,2.5,2.5v13.7c0.9,0.5,1.7,1.2,2.2,2.2h9.8
		c1.4,0,2.5,1.1,2.5,2.5s-1.1,2.5-2.5,2.5h-9.8c-0.9,1.7-2.7,2.8-4.7,2.8c-1.6,0-3-0.7-4-1.8C84.7,92.8,84.8,89.7,86.6,87.7
		L86.6,87.7L86.6,87.7z M110.1,70.4c-13-13-35-9.3-42.6,7.1c-1.6,3.4-2.4,7.1-2.4,11.1c0,7.3,2.9,13.9,7.7,18.6
		c4.8,4.8,11.4,7.7,18.6,7.7s13.9-3,18.6-7.7c4.8-4.8,7.7-11.4,7.7-18.6c0-4.1-0.9-8-2.6-11.5C113.9,74.4,112.2,72.5,110.1,70.4
		L110.1,70.4L110.1,70.4z M25.3,4.1c0-2.2,2.2-4.1,4.9-4.1c2.7,0,5,1.8,5,4.1v17.7c0,2.2-2.2,4.1-5,4.1s-5-1.8-5-4.1L25.3,4.1
		L25.3,4.1L25.3,4.1z M5.4,38.8h94.2V18.4c0-0.7-0.3-1.3-0.7-1.8c-0.4-0.5-1.1-0.7-1.8-0.7h-9c-1.5,0-2.7-1.2-2.7-2.7
		s1.2-2.7,2.7-2.7h9c2.2,0,4.2,0.9,5.7,2.3c1.4,1.4,2.3,3.4,2.3,5.6v32.4c-1.8-0.6-3.7-1.1-5.6-1.5v-5.1h0.1H5.4v52.9
		c0,0.7,0.3,1.3,0.7,1.8c0.4,0.4,1.1,0.7,1.8,0.7h44.8c0.5,1.9,1.2,3.8,1.9,5.5H8c-2.2,0-4.2-0.9-5.7-2.3C0.9,101.4,0,99.4,0,97.2
		V18.4c0-2.2,0.9-4.2,2.3-5.6c1.5-1.4,3.4-2.3,5.6-2.3h9.6c1.5,0,2.7,1.2,2.7,2.7s-1.2,2.7-2.7,2.7H8c-0.7,0-1.3,0.3-1.8,0.7
		c-0.4,0.5-0.7,1.1-0.7,1.8L5.4,38.8L5.4,38.8L5.4,38.8L5.4,38.8z M43.1,15.9c-1.5,0-2.7-1.2-2.7-2.7s1.2-2.7,2.7-2.7h18.4
		c1.5,0,2.7,1.2,2.7,2.7s-1.2,2.7-2.7,2.7H43.1L43.1,15.9L43.1,15.9z"/>
</g>
</svg>
