<?xml version="1.0" encoding="utf-8"?>
<!-- Generator: Adobe Illustrator 25.4.1, SVG Export Plug-In . SVG Version: 6.00 Build 0)  -->
<svg version="1.1" id="Layer_1" xmlns="http://www.w3.org/2000/svg" xmlns:xlink="http://www.w3.org/1999/xlink" x="0px" y="0px"
	 viewBox="0 0 122.9 68.2" style="enable-background:new 0 0 122.9 68.2;" xml:space="preserve">
<style type="text/css">
	.st0{fill-rule:evenodd;clip-rule:evenodd;fill:#17B978;}
	.st1{fill:#17B978;}
</style>
<path class="st0" d="M61.4,13.8c11.2,0,20.3,9,20.4,20.2s-9,20.3-20.2,20.4c-11.2,0-20.3-9-20.4-20.2c0-5.4,2.1-10.6,5.9-14.4
	C50.9,16,56.1,13.8,61.4,13.8z M1,31.3c3.2-3.9,6.6-7.5,10.3-10.9C25.7,7.3,42.1,0.4,59,0s34.1,5.9,50.3,19.3
	c4.5,3.7,8.7,7.7,12.5,12c1.2,1.4,1.3,3.5,0.2,5c-4.3,6.2-9.5,11.7-15.4,16.4C94.3,62.6,79,68.1,63.3,68.2
	c-15.9,0-31.4-5.1-44.3-14.4C12.3,48.9,6.1,43.1,0.9,36.4C-0.4,34.9-0.3,32.7,1,31.3z M16.7,26.3c-2.7,2.4-5.2,5-7.6,7.7
	c4.3,5,9.2,9.5,14.6,13.4c11.6,8.3,25.4,12.9,39.7,12.9c14-0.1,27.5-4.9,38.4-13.7c4.5-3.6,8.5-7.7,12-12.3c-3-3.1-6.2-6.1-9.5-8.9
	C89.6,13.3,74.1,7.6,59.1,7.9C44.1,8.2,29.6,14.5,16.7,26.3L16.7,26.3z M56.4,18.5c4.3,0,7.9,3.5,7.9,7.9s-3.5,7.9-7.9,7.9
	s-7.9-3.5-7.9-7.9l0,0C48.5,22,52,18.5,56.4,18.5L56.4,18.5z"/>
<rect x="-673" y="-141" class="st1" width="87.5" height="87.5"/>
</svg>
